<svg xmlns="http://www.w3.org/2000/svg" xmlns:xlink="http://www.w3.org/1999/xlink" width="400" height="400" viewBox="0 0 400 400"><g data-name="icon" fill="#009fe0" data="id:6906993" transform="translate(12.169175262044025, 12.170131821610955) scale(3.756649454864047)">
    
 <path d="m52.02 78.203v7.6641c3.3359-1.043 6.5781-1.3945 9.7266-1.0508 3.0195 0.33203 5.9414 1.2969 8.7617 2.9023v-6.0117c0-0.0625 0.007813-0.12109 0.015626-0.18359v-1.2305c-2.8945-1.832-5.8945-2.918-8.9922-3.2578-3.0586-0.33203-6.2305 0.054688-9.5117 1.168zm20.508 2.0742v0.54688l-0.007813 6.1914v0.70312c2.8203-1.6016 5.7422-2.5703 8.7617-2.9023 3.1484-0.34375 6.3867 0.003906 9.7227 1.0508v-7.6641c-3.2852-1.1133-6.457-1.5-9.5117-1.1641-3.0898 0.33594-6.0781 1.418-8.9648 3.2383zm-20.508-29.105v6.8359c3.3359-1.043 6.5781-1.3945 9.7266-1.0508 3.0234 0.33203 5.9453 1.3008 8.7695 2.9062l-0.003906-6.6055c-5.7344-3.6211-11.898-4.3164-18.492-2.0859zm38.984 0c-3.2852-1.1133-6.457-1.5-9.5117-1.1641-3.0938 0.33984-6.0859 1.4219-8.9766 3.2461l0.003906 6.6055c2.8203-1.6016 5.7422-2.5703 8.7617-2.9023 3.1484-0.34375 6.3867 0.003907 9.7227 1.0508zm-20.488 19.941 0.003906 6.8398c-2.8281-1.6094-5.7539-2.5781-8.7773-2.9102-3.1484-0.34375-6.3906 0.003906-9.7266 1.0508v-7.0664c3.2852-1.1133 6.457-1.5 9.5117-1.1641 3.1016 0.33203 6.0938 1.418 8.9883 3.25zm-18.496-4.2031v-6.7891c3.2852-1.1133 6.457-1.5 9.5117-1.1641 3.0938 0.33984 6.0898 1.4219 8.9805 3.25l0.003906 6.5625c-2.8242-1.6055-5.75-2.5742-8.7734-2.9062-3.1445-0.34766-6.3906 0.003907-9.7227 1.0469zm20.5 1.8477-0.003906-6.5586c2.8906-1.8242 5.8828-2.9062 8.9727-3.2461 3.0547-0.33594 6.2266 0.054687 9.5117 1.1641v6.7891c-3.3359-1.043-6.5781-1.3945-9.7227-1.0508-3.0156 0.33594-5.9375 1.3008-8.7578 2.9023zm18.484 0.26563v7.0664c-3.3359-1.043-6.5781-1.3945-9.7227-1.0508-3.0156 0.33203-5.9336 1.2969-8.7539 2.8945l-0.003906-6.8359c2.8867-1.8242 5.8789-2.9023 8.9688-3.2422 3.0547-0.33203 6.2266 0.054687 9.5117 1.168zm-20.496-18.113c-1.6484-0.9375-3.3281-1.6602-5.0391-2.1641l-0.003906-15.395c0-1.0859-0.44531-2.0742-1.1602-2.7891-0.71484-0.71484-1.7031-1.1602-2.7891-1.1602h-27.613c-0.48438 0-0.94531 0.089844-1.3789 0.26953-0.42969 0.17969-0.82031 0.44141-1.168 0.78906l-0.003907-0.003907-5.4023 5.4023c-0.019531 0.019531-0.039063 0.042969-0.058594 0.0625-0.31641 0.33203-0.55859 0.69922-0.72656 1.1055-0.17969 0.43359-0.26953 0.89453-0.26953 1.3789v27.617c0 1.0859 0.44531 2.0742 1.1602 2.7891 0.71484 0.71484 1.7031 1.1602 2.7891 1.1602h15.285v5.0352h-21.855c-0.66406 0-1.2656-0.27344-1.7031-0.71094s-0.71094-1.043-0.71094-1.7031v-45.816c0-0.66406 0.27344-1.2656 0.71094-1.707 0.4375-0.4375 1.043-0.71094 1.7031-0.71094h45.816c0.66406 0 1.2656 0.27344 1.7031 0.71094s0.71094 1.043 0.71094 1.707h0.003906zm-24.363 24.809v-18.746c0-0.20703 0.085938-0.39453 0.22266-0.53125 0.13672-0.13672 0.32422-0.22266 0.53125-0.22266h3.1094l-0.003906 31.051c0 0.55469 0.44922 1.0078 1.0078 1.0078 0.14062 0 0.27734-0.027344 0.39844-0.082032 3.5039-1.2734 6.875-1.7344 10.121-1.3789 3.2344 0.35547 6.3594 1.5234 9.3711 3.5039 0.16797 0.12891 0.37891 0.20313 0.60547 0.20313 0.22656 0 0.4375-0.074219 0.60547-0.20313 3.0156-1.9805 6.1367-3.1484 9.3711-3.5039 3.2461-0.35547 6.6211 0.10547 10.121 1.3789 0.12109 0.050782 0.25781 0.082032 0.39844 0.082032 0.55469 0 1.0078-0.44922 1.0078-1.0078l0.003906-31.176 3.1289 0.078125c0.20312 0.003906 0.38672 0.089844 0.51953 0.22656 0.13281 0.13281 0.21094 0.32031 0.21094 0.52734v34.91c0 0.20703-0.085938 0.39453-0.22266 0.53125-0.13672 0.13672-0.32422 0.22266-0.53125 0.22266h-49.227c-0.20703 0-0.39453-0.085938-0.53125-0.22266-0.13672-0.13672-0.22266-0.32422-0.22266-0.53125v-1.418c0.027344-0.09375 0.042969-0.19141 0.042969-0.29688l0.007812-11.086c0-0.10156-0.015625-0.20312-0.042968-0.29688v-2.4297c0.027343-0.09375 0.042968-0.19141 0.042968-0.29688 0-0.10156-0.019531-0.19922-0.046875-0.29297zm17.309-27.457c-4.0703-0.78516-8.3125-0.37109-12.727 1.2344-0.41797 0.12109-0.72266 0.50781-0.72266 0.96484v3.7461l-3.1094 0.003907c-0.76172 0-1.4531 0.30859-1.9531 0.80859s-0.80859 1.1914-0.80859 1.9531v10.984h-15.285c-0.53125 0-1.0156-0.21875-1.3672-0.57031-0.35156-0.35156-0.57031-0.83594-0.57031-1.3672v-27.617c0-0.23047 0.039063-0.43359 0.11328-0.61328 0.070312-0.16406 0.17187-0.32031 0.30859-0.46484 0.015625-0.011719 0.03125-0.027344 0.042969-0.042969l5.4023-5.4023-0.003906-0.003906 0.003906-0.003906c0.15625-0.16016 0.32812-0.27344 0.50781-0.35156 0.17969-0.074219 0.38672-0.11328 0.61719-0.11328h27.617c0.53125 0 1.0156 0.21875 1.3672 0.57031 0.35156 0.35156 0.57031 0.83594 0.57031 1.3672zm-26.168 26.883v11.945c0 0.52734 0.42969 0.95703 0.95703 0.95703 0.52734 0 0.95703-0.42969 0.95703-0.95703l-0.003907-11.945c0-0.046875-0.003906-0.089843-0.007812-0.13672h-1.8945c-0.003907 0.042969-0.007813 0.089844-0.007813 0.13672zm-13.453 11.484c0.98047-0.34375 1.832-1.0586 2.3164-2.0664 0.12891-0.26172 0.22266-0.53125 0.28906-0.80469h4.1562c0.52734 0 0.95703-0.42969 0.95703-0.95703v-7.6602c0-0.046875-0.003906-0.089844-0.007812-0.13672h-1.8945c-0.007813 0.042969-0.007813 0.089844-0.007813 0.13672v6.7031h-3.2031c-0.03125-0.12891-0.070312-0.25391-0.11328-0.37891-0.34375-0.98047-1.0586-1.832-2.0664-2.3164h-0.003906c-1.0078-0.48438-2.1172-0.51563-3.0938-0.17188-0.98047 0.34375-1.832 1.0586-2.3164 2.0664v0.003906c-0.48438 1.0078-0.51562 2.1172-0.17188 3.0938 0.34375 0.98047 1.0586 1.832 2.0664 2.3164 1 0.48438 2.1133 0.51562 3.0938 0.17188zm-14.328-11.402v0.003907c0.48438 1.0078 1.3359 1.7227 2.3164 2.0664 0.97656 0.33984 2.0859 0.3125 3.0938-0.17188l0.007813-0.003906c1.0078-0.48828 1.7227-1.3359 2.0664-2.3164 0.33984-0.97656 0.3125-2.0859-0.17578-3.0938v-0.003907c-0.48438-1.0078-1.3359-1.7227-2.3164-2.0664-0.125-0.042969-0.25391-0.082031-0.37891-0.11328v-3.2031h5.7461v-1.9141h-6.7031c-0.52734 0-0.95703 0.42969-0.95703 0.95703v4.1562c-0.27344 0.066406-0.54297 0.16016-0.80469 0.28906-1.0078 0.48828-1.7227 1.3359-2.0664 2.3164-0.34375 0.98047-0.3125 2.0898 0.17188 3.0977zm-6.1523-23.766c0.34375 0.98047 1.0586 1.832 2.0664 2.3164h0.003906c1.0078 0.48438 2.1172 0.51562 3.0977 0.17578 0.98047-0.34375 1.832-1.0586 2.3164-2.0664l0.003906-0.003907c0.125-0.26172 0.22266-0.53125 0.28516-0.80078h8.7383v-1.9141h-8.7383c-0.03125-0.12891-0.070312-0.25781-0.11328-0.37891-0.34375-0.98047-1.0586-1.832-2.0664-2.3164l-0.007812-0.003906c-1.0078-0.48438-2.1133-0.51172-3.0898-0.17188-0.98047 0.34375-1.832 1.0586-2.3164 2.0664l-0.003906 0.007813c-0.48828 1.0039-0.51953 2.1094-0.17578 3.0898zm5.9805-23.344c0.34375 0.98047 1.0586 1.832 2.0664 2.3164 0.26172 0.12891 0.53125 0.22266 0.80469 0.28906v4.1562c0 0.52734 0.42969 0.95703 0.95703 0.95703h6.7031v-1.9141h-5.75v-3.2031c0.12891-0.03125 0.25391-0.070312 0.37891-0.11328 0.98047-0.34375 1.832-1.0586 2.3164-2.0664 0.48828-1.0078 0.51953-2.1172 0.17578-3.0977-0.34375-0.98047-1.0586-1.832-2.0664-2.3164-1.0078-0.48828-2.1211-0.51953-3.0977-0.17578-0.98047 0.34375-1.832 1.0586-2.3164 2.0664s-0.51562 2.1211-0.17188 3.1016zm11.398-14.328c-1.0078 0.48438-1.7227 1.3359-2.0664 2.3164s-0.3125 2.0898 0.17578 3.0977c0.48828 1.0078 1.3359 1.7227 2.3164 2.0664s2.0898 0.3125 3.0977-0.17578c1.0078-0.48438 1.7227-1.3359 2.0664-2.3164 0.042969-0.125 0.082032-0.25391 0.11328-0.37891h3.2031v5.9648h1.9141v-6.9219c0-0.52734-0.42969-0.95703-0.95703-0.95703h-4.1562c-0.066406-0.27344-0.16406-0.54297-0.28906-0.80469-0.48438-1.0078-1.3359-1.7227-2.3164-2.0664-0.98047-0.33984-2.0898-0.30859-3.1016 0.17578zm23.77-6.1523c-0.98047 0.34375-1.832 1.0586-2.3164 2.0664s-0.51562 2.1172-0.17578 3.0977c0.34375 0.98047 1.0586 1.832 2.0664 2.3164 0.26172 0.12891 0.53125 0.22266 0.80469 0.28906v8.957h1.9141v-8.957c0.12891-0.03125 0.25391-0.070312 0.37891-0.11328 0.98047-0.34375 1.832-1.0586 2.3164-2.0664 0.48828-1.0078 0.51953-2.1172 0.17578-3.0977-0.34375-0.98047-1.0586-1.832-2.0664-2.3164-1.0078-0.48828-2.1172-0.51953-3.0977-0.17578zm23.344 5.9766c-0.98047 0.34375-1.832 1.0586-2.3164 2.0664-0.125 0.26172-0.22266 0.53125-0.28906 0.80469h-4.1562c-0.52734 0-0.95703 0.42969-0.95703 0.95703v6.9219h1.9141v-5.9648h3.2031c0.03125 0.12891 0.070312 0.25391 0.11328 0.37891 0.34375 0.98047 1.0586 1.832 2.0664 2.3164l0.003906 0.003906c1.0078 0.48438 2.1172 0.51562 3.0938 0.17188 0.98047-0.34375 1.832-1.0586 2.3164-2.0664l0.003906-0.003906c0.48438-1.0078 0.51562-2.1172 0.17188-3.0977-0.34375-0.98047-1.0586-1.832-2.0664-2.3164-1.0117-0.48047-2.1211-0.51172-3.1016-0.17188zm14.324 11.402c-0.48438-1.0078-1.3359-1.7227-2.3164-2.0664-0.97656-0.34375-2.0859-0.3125-3.0938 0.17188l-0.003906 0.003906c-1.0078 0.48828-1.7227 1.3359-2.0664 2.3164-0.33984 0.97656-0.3125 2.0859 0.17188 3.0898l0.003906 0.007812c0.48828 1.0078 1.3359 1.7227 2.3164 2.0664 0.125 0.042969 0.25391 0.082031 0.37891 0.11328v3.2031h-6.7031c-0.12109 0-0.24219 0.023437-0.35156 0.066406v1.7812c0.10938 0.042969 0.22656 0.066407 0.35156 0.066407h7.6602c0.52734 0 0.95703-0.42969 0.95703-0.95703v-4.1562c0.26953-0.066406 0.53906-0.16016 0.80078-0.28516l0.003906-0.003906c1.0078-0.48438 1.7227-1.3359 2.0664-2.3164 0.34375-0.98047 0.3125-2.0938-0.17578-3.1016zm-11.312 18.465h11.945c0.52734 0 0.95703-0.42969 0.95703-0.95703 0.003907-0.52734-0.42578-0.95313-0.95312-0.95313h-11.949c-0.12109 0-0.24219 0.023438-0.35156 0.066407v1.7812c0.11328 0.042969 0.23047 0.0625 0.35156 0.0625zm-18.379-19.117h1.9141v-11.207c0-0.52734-0.42969-0.95703-0.95703-0.95703s-0.95703 0.42969-0.95703 0.95703zm-15.191 0h1.9141v-11.207c0-0.52734-0.42969-0.95703-0.95703-0.95703-0.52734 0-0.95703 0.42969-0.95703 0.95703zm-17.426 19.117v-1.9141l-10.988 0.003906c-0.52734 0-0.95703 0.42969-0.95703 0.95703s0.42969 0.95703 0.95703 0.95703zm0 15.195v-1.9141h-10.988c-0.52734 0-0.95703 0.42969-0.95703 0.95703s0.42969 0.95703 0.95703 0.95703z" fill-rule="evenodd"/>

    </g></svg>