<svg xmlns="http://www.w3.org/2000/svg" xmlns:xlink="http://www.w3.org/1999/xlink" width="400" height="400" viewBox="0 0 400 400">
<rect data-name="background" width="100%" height="100%" fill="#FFFFFF"/><g data-name="icon" fill="#000000" data="id:6906993" transform="translate(8.241477600369915,139.84178396760336) scale(1.2031810044665636)">
    
 <path d="m52.02 78.203v7.6641c3.3359-1.043 6.5781-1.3945 9.7266-1.0508 3.0195 0.33203 5.9414 1.2969 8.7617 2.9023v-6.0117c0-0.0625 0.007813-0.12109 0.015626-0.18359v-1.2305c-2.8945-1.832-5.8945-2.918-8.9922-3.2578-3.0586-0.33203-6.2305 0.054688-9.5117 1.168zm20.508 2.0742v0.54688l-0.007813 6.1914v0.70312c2.8203-1.6016 5.7422-2.5703 8.7617-2.9023 3.1484-0.34375 6.3867 0.003906 9.7227 1.0508v-7.6641c-3.2852-1.1133-6.457-1.5-9.5117-1.1641-3.0898 0.33594-6.0781 1.418-8.9648 3.2383zm-20.508-29.105v6.8359c3.3359-1.043 6.5781-1.3945 9.7266-1.0508 3.0234 0.33203 5.9453 1.3008 8.7695 2.9062l-0.003906-6.6055c-5.7344-3.6211-11.898-4.3164-18.492-2.0859zm38.984 0c-3.2852-1.1133-6.457-1.5-9.5117-1.1641-3.0938 0.33984-6.0859 1.4219-8.9766 3.2461l0.003906 6.6055c2.8203-1.6016 5.7422-2.5703 8.7617-2.9023 3.1484-0.34375 6.3867 0.003907 9.7227 1.0508zm-20.488 19.941 0.003906 6.8398c-2.8281-1.6094-5.7539-2.5781-8.7773-2.9102-3.1484-0.34375-6.3906 0.003906-9.7266 1.0508v-7.0664c3.2852-1.1133 6.457-1.5 9.5117-1.1641 3.1016 0.33203 6.0938 1.418 8.9883 3.25zm-18.496-4.2031v-6.7891c3.2852-1.1133 6.457-1.5 9.5117-1.1641 3.0938 0.33984 6.0898 1.4219 8.9805 3.25l0.003906 6.5625c-2.8242-1.6055-5.75-2.5742-8.7734-2.9062-3.1445-0.34766-6.3906 0.003907-9.7227 1.0469zm20.5 1.8477-0.003906-6.5586c2.8906-1.8242 5.8828-2.9062 8.9727-3.2461 3.0547-0.33594 6.2266 0.054687 9.5117 1.1641v6.7891c-3.3359-1.043-6.5781-1.3945-9.7227-1.0508-3.0156 0.33594-5.9375 1.3008-8.7578 2.9023zm18.484 0.26563v7.0664c-3.3359-1.043-6.5781-1.3945-9.7227-1.0508-3.0156 0.33203-5.9336 1.2969-8.7539 2.8945l-0.003906-6.8359c2.8867-1.8242 5.8789-2.9023 8.9688-3.2422 3.0547-0.33203 6.2266 0.054687 9.5117 1.168zm-20.496-18.113c-1.6484-0.9375-3.3281-1.6602-5.0391-2.1641l-0.003906-15.395c0-1.0859-0.44531-2.0742-1.1602-2.7891-0.71484-0.71484-1.7031-1.1602-2.7891-1.1602h-27.613c-0.48438 0-0.94531 0.089844-1.3789 0.26953-0.42969 0.17969-0.82031 0.44141-1.168 0.78906l-0.003907-0.003907-5.4023 5.4023c-0.019531 0.019531-0.039063 0.042969-0.058594 0.0625-0.31641 0.33203-0.55859 0.69922-0.72656 1.1055-0.17969 0.43359-0.26953 0.89453-0.26953 1.3789v27.617c0 1.0859 0.44531 2.0742 1.1602 2.7891 0.71484 0.71484 1.7031 1.1602 2.7891 1.1602h15.285v5.0352h-21.855c-0.66406 0-1.2656-0.27344-1.7031-0.71094s-0.71094-1.043-0.71094-1.7031v-45.816c0-0.66406 0.27344-1.2656 0.71094-1.707 0.4375-0.4375 1.043-0.71094 1.7031-0.71094h45.816c0.66406 0 1.2656 0.27344 1.7031 0.71094s0.71094 1.043 0.71094 1.707h0.003906zm-24.363 24.809v-18.746c0-0.20703 0.085938-0.39453 0.22266-0.53125 0.13672-0.13672 0.32422-0.22266 0.53125-0.22266h3.1094l-0.003906 31.051c0 0.55469 0.44922 1.0078 1.0078 1.0078 0.14062 0 0.27734-0.027344 0.39844-0.082032 3.5039-1.2734 6.875-1.7344 10.121-1.3789 3.2344 0.35547 6.3594 1.5234 9.3711 3.5039 0.16797 0.12891 0.37891 0.20313 0.60547 0.20313 0.22656 0 0.4375-0.074219 0.60547-0.20313 3.0156-1.9805 6.1367-3.1484 9.3711-3.5039 3.2461-0.35547 6.6211 0.10547 10.121 1.3789 0.12109 0.050782 0.25781 0.082032 0.39844 0.082032 0.55469 0 1.0078-0.44922 1.0078-1.0078l0.003906-31.176 3.1289 0.078125c0.20312 0.003906 0.38672 0.089844 0.51953 0.22656 0.13281 0.13281 0.21094 0.32031 0.21094 0.52734v34.91c0 0.20703-0.085938 0.39453-0.22266 0.53125-0.13672 0.13672-0.32422 0.22266-0.53125 0.22266h-49.227c-0.20703 0-0.39453-0.085938-0.53125-0.22266-0.13672-0.13672-0.22266-0.32422-0.22266-0.53125v-1.418c0.027344-0.09375 0.042969-0.19141 0.042969-0.29688l0.007812-11.086c0-0.10156-0.015625-0.20312-0.042968-0.29688v-2.4297c0.027343-0.09375 0.042968-0.19141 0.042968-0.29688 0-0.10156-0.019531-0.19922-0.046875-0.29297zm17.309-27.457c-4.0703-0.78516-8.3125-0.37109-12.727 1.2344-0.41797 0.12109-0.72266 0.50781-0.72266 0.96484v3.7461l-3.1094 0.003907c-0.76172 0-1.4531 0.30859-1.9531 0.80859s-0.80859 1.1914-0.80859 1.9531v10.984h-15.285c-0.53125 0-1.0156-0.21875-1.3672-0.57031-0.35156-0.35156-0.57031-0.83594-0.57031-1.3672v-27.617c0-0.23047 0.039063-0.43359 0.11328-0.61328 0.070312-0.16406 0.17187-0.32031 0.30859-0.46484 0.015625-0.011719 0.03125-0.027344 0.042969-0.042969l5.4023-5.4023-0.003906-0.003906 0.003906-0.003906c0.15625-0.16016 0.32812-0.27344 0.50781-0.35156 0.17969-0.074219 0.38672-0.11328 0.61719-0.11328h27.617c0.53125 0 1.0156 0.21875 1.3672 0.57031 0.35156 0.35156 0.57031 0.83594 0.57031 1.3672zm-26.168 26.883v11.945c0 0.52734 0.42969 0.95703 0.95703 0.95703 0.52734 0 0.95703-0.42969 0.95703-0.95703l-0.003907-11.945c0-0.046875-0.003906-0.089843-0.007812-0.13672h-1.8945c-0.003907 0.042969-0.007813 0.089844-0.007813 0.13672zm-13.453 11.484c0.98047-0.34375 1.832-1.0586 2.3164-2.0664 0.12891-0.26172 0.22266-0.53125 0.28906-0.80469h4.1562c0.52734 0 0.95703-0.42969 0.95703-0.95703v-7.6602c0-0.046875-0.003906-0.089844-0.007812-0.13672h-1.8945c-0.007813 0.042969-0.007813 0.089844-0.007813 0.13672v6.7031h-3.2031c-0.03125-0.12891-0.070312-0.25391-0.11328-0.37891-0.34375-0.98047-1.0586-1.832-2.0664-2.3164h-0.003906c-1.0078-0.48438-2.1172-0.51563-3.0938-0.17188-0.98047 0.34375-1.832 1.0586-2.3164 2.0664v0.003906c-0.48438 1.0078-0.51562 2.1172-0.17188 3.0938 0.34375 0.98047 1.0586 1.832 2.0664 2.3164 1 0.48438 2.1133 0.51562 3.0938 0.17188zm-14.328-11.402v0.003907c0.48438 1.0078 1.3359 1.7227 2.3164 2.0664 0.97656 0.33984 2.0859 0.3125 3.0938-0.17188l0.007813-0.003906c1.0078-0.48828 1.7227-1.3359 2.0664-2.3164 0.33984-0.97656 0.3125-2.0859-0.17578-3.0938v-0.003907c-0.48438-1.0078-1.3359-1.7227-2.3164-2.0664-0.125-0.042969-0.25391-0.082031-0.37891-0.11328v-3.2031h5.7461v-1.9141h-6.7031c-0.52734 0-0.95703 0.42969-0.95703 0.95703v4.1562c-0.27344 0.066406-0.54297 0.16016-0.80469 0.28906-1.0078 0.48828-1.7227 1.3359-2.0664 2.3164-0.34375 0.98047-0.3125 2.0898 0.17188 3.0977zm-6.1523-23.766c0.34375 0.98047 1.0586 1.832 2.0664 2.3164h0.003906c1.0078 0.48438 2.1172 0.51562 3.0977 0.17578 0.98047-0.34375 1.832-1.0586 2.3164-2.0664l0.003906-0.003907c0.125-0.26172 0.22266-0.53125 0.28516-0.80078h8.7383v-1.9141h-8.7383c-0.03125-0.12891-0.070312-0.25781-0.11328-0.37891-0.34375-0.98047-1.0586-1.832-2.0664-2.3164l-0.007812-0.003906c-1.0078-0.48438-2.1133-0.51172-3.0898-0.17188-0.98047 0.34375-1.832 1.0586-2.3164 2.0664l-0.003906 0.007813c-0.48828 1.0039-0.51953 2.1094-0.17578 3.0898zm5.9805-23.344c0.34375 0.98047 1.0586 1.832 2.0664 2.3164 0.26172 0.12891 0.53125 0.22266 0.80469 0.28906v4.1562c0 0.52734 0.42969 0.95703 0.95703 0.95703h6.7031v-1.9141h-5.75v-3.2031c0.12891-0.03125 0.25391-0.070312 0.37891-0.11328 0.98047-0.34375 1.832-1.0586 2.3164-2.0664 0.48828-1.0078 0.51953-2.1172 0.17578-3.0977-0.34375-0.98047-1.0586-1.832-2.0664-2.3164-1.0078-0.48828-2.1211-0.51953-3.0977-0.17578-0.98047 0.34375-1.832 1.0586-2.3164 2.0664s-0.51562 2.1211-0.17188 3.1016zm11.398-14.328c-1.0078 0.48438-1.7227 1.3359-2.0664 2.3164s-0.3125 2.0898 0.17578 3.0977c0.48828 1.0078 1.3359 1.7227 2.3164 2.0664s2.0898 0.3125 3.0977-0.17578c1.0078-0.48438 1.7227-1.3359 2.0664-2.3164 0.042969-0.125 0.082032-0.25391 0.11328-0.37891h3.2031v5.9648h1.9141v-6.9219c0-0.52734-0.42969-0.95703-0.95703-0.95703h-4.1562c-0.066406-0.27344-0.16406-0.54297-0.28906-0.80469-0.48438-1.0078-1.3359-1.7227-2.3164-2.0664-0.98047-0.33984-2.0898-0.30859-3.1016 0.17578zm23.77-6.1523c-0.98047 0.34375-1.832 1.0586-2.3164 2.0664s-0.51562 2.1172-0.17578 3.0977c0.34375 0.98047 1.0586 1.832 2.0664 2.3164 0.26172 0.12891 0.53125 0.22266 0.80469 0.28906v8.957h1.9141v-8.957c0.12891-0.03125 0.25391-0.070312 0.37891-0.11328 0.98047-0.34375 1.832-1.0586 2.3164-2.0664 0.48828-1.0078 0.51953-2.1172 0.17578-3.0977-0.34375-0.98047-1.0586-1.832-2.0664-2.3164-1.0078-0.48828-2.1172-0.51953-3.0977-0.17578zm23.344 5.9766c-0.98047 0.34375-1.832 1.0586-2.3164 2.0664-0.125 0.26172-0.22266 0.53125-0.28906 0.80469h-4.1562c-0.52734 0-0.95703 0.42969-0.95703 0.95703v6.9219h1.9141v-5.9648h3.2031c0.03125 0.12891 0.070312 0.25391 0.11328 0.37891 0.34375 0.98047 1.0586 1.832 2.0664 2.3164l0.003906 0.003906c1.0078 0.48438 2.1172 0.51562 3.0938 0.17188 0.98047-0.34375 1.832-1.0586 2.3164-2.0664l0.003906-0.003906c0.48438-1.0078 0.51562-2.1172 0.17188-3.0977-0.34375-0.98047-1.0586-1.832-2.0664-2.3164-1.0117-0.48047-2.1211-0.51172-3.1016-0.17188zm14.324 11.402c-0.48438-1.0078-1.3359-1.7227-2.3164-2.0664-0.97656-0.34375-2.0859-0.3125-3.0938 0.17188l-0.003906 0.003906c-1.0078 0.48828-1.7227 1.3359-2.0664 2.3164-0.33984 0.97656-0.3125 2.0859 0.17188 3.0898l0.003906 0.007812c0.48828 1.0078 1.3359 1.7227 2.3164 2.0664 0.125 0.042969 0.25391 0.082031 0.37891 0.11328v3.2031h-6.7031c-0.12109 0-0.24219 0.023437-0.35156 0.066406v1.7812c0.10938 0.042969 0.22656 0.066407 0.35156 0.066407h7.6602c0.52734 0 0.95703-0.42969 0.95703-0.95703v-4.1562c0.26953-0.066406 0.53906-0.16016 0.80078-0.28516l0.003906-0.003906c1.0078-0.48438 1.7227-1.3359 2.0664-2.3164 0.34375-0.98047 0.3125-2.0938-0.17578-3.1016zm-11.312 18.465h11.945c0.52734 0 0.95703-0.42969 0.95703-0.95703 0.003907-0.52734-0.42578-0.95313-0.95312-0.95313h-11.949c-0.12109 0-0.24219 0.023438-0.35156 0.066407v1.7812c0.11328 0.042969 0.23047 0.0625 0.35156 0.0625zm-18.379-19.117h1.9141v-11.207c0-0.52734-0.42969-0.95703-0.95703-0.95703s-0.95703 0.42969-0.95703 0.95703zm-15.191 0h1.9141v-11.207c0-0.52734-0.42969-0.95703-0.95703-0.95703-0.52734 0-0.95703 0.42969-0.95703 0.95703zm-17.426 19.117v-1.9141l-10.988 0.003906c-0.52734 0-0.95703 0.42969-0.95703 0.95703s0.42969 0.95703 0.95703 0.95703zm0 15.195v-1.9141h-10.988c-0.52734 0-0.95703 0.42969-0.95703 0.95703s0.42969 0.95703 0.95703 0.95703z" fill-rule="evenodd"/>

    </g><g data-name="business_name" fill="#000000" data="id:304" transform="translate(147.22891849998058,140.44172328511146) scale(1.3391049778581148)"><path d="M16.72,48.32q-3.2,0-5.9-1.06t-4.68-3t-3.1-4.54t-1.12-5.72t1.12-5.72t3.12-4.54t4.7-3t5.9-1.06q3.24,0,5.98,1.1t4.66,3.26l-2.6,2.52q-1.6-1.68-3.6-2.5t-4.28-0.82q-2.36,0-4.38,0.8t-3.5,2.24t-2.3,3.42t-0.82,4.3t0.82,4.3t2.3,3.42t3.5,2.24t4.38,0.8q2.28,0,4.28-0.82t3.6-2.54l2.6,2.52q-1.92,2.16-4.66,3.28t-6.02,1.12z M41.64,48.24q-3.2,0-5.68-1.4t-3.92-3.86t-1.44-5.58q0-3.16,1.44-5.6t3.92-3.82t5.68-1.38q3.16,0,5.66,1.38t3.92,3.8t1.42,5.62q0,3.16-1.42,5.6t-3.92,3.84t-5.66,1.4z M41.64,44.88q2.04,0,3.66-0.92t2.54-2.62t0.92-3.94q0-2.28-0.92-3.94t-2.54-2.58t-3.66-0.92t-3.64,0.92t-2.56,2.58t-0.96,3.94q0,2.24,0.96,3.94t2.56,2.62t3.64,0.92z M66.88,48.24q-2.72,0-4.78-1t-3.2-3.06t-1.14-5.18l0-12.2l3.84,0l0,11.76q0,3.12,1.5,4.68t4.22,1.56q2,0,3.48-0.82t2.28-2.4t0.8-3.82l0-10.96l3.84,0l0,21.2l-3.64,0l0-5.72l0.6,1.52q-1.04,2.12-3.12,3.28t-4.68,1.16z M85.04,48l0-21.2l3.68,0l0,5.76l-0.36-1.44q0.88-2.2,2.96-3.36t5.12-1.16l0,3.72q-0.24-0.04-0.46-0.04l-0.42,0q-3.08,0-4.88,1.84t-1.8,5.32l0,10.56l-3.84,0z M107.52,48.24q-2.64,0-5.02-0.72t-3.74-1.76l1.6-3.04q1.36,0.92,3.36,1.56t4.08,0.64q2.68,0,3.86-0.76t1.18-2.12q0-1-0.72-1.56t-1.9-0.84t-2.62-0.5t-2.88-0.56t-2.64-0.96t-1.92-1.72t-0.72-2.94q0-1.92,1.08-3.36t3.06-2.22t4.7-0.78q2.08,0,4.22,0.5t3.5,1.42l-1.64,3.04q-1.44-0.96-3-1.32t-3.12-0.36q-2.52,0-3.76,0.82t-1.24,2.1q0,1.08,0.74,1.66t1.92,0.9t2.62,0.54t2.88,0.56t2.62,0.94t1.92,1.68t0.74,2.88q0,1.92-1.12,3.32t-3.16,2.18t-4.88,0.78z M130.92,48.24q-3.4,0-5.98-1.4t-4-3.84t-1.42-5.6t1.38-5.6t3.8-3.82t5.46-1.38q3.08,0,5.44,1.36t3.7,3.82t1.34,5.74q0,0.24-0.02,0.56t-0.06,0.6l-18.04,0l0-2.76l16.04,0l-1.56,0.96q0.04-2.04-0.84-3.64t-2.42-2.5t-3.58-0.9q-2,0-3.56,0.9t-2.44,2.52t-0.88,3.7l0,0.64q0,2.12,0.98,3.78t2.74,2.58t4.04,0.92q1.88,0,3.42-0.64t2.7-1.92l2.12,2.48q-1.44,1.68-3.58,2.56t-4.78,0.88z M142.28,48l12.68-28l3.96,0l12.72,28l-4.2,0l-11.32-25.76l1.6,0l-11.32,25.76l-4.12,0z M147.68,41l1.08-3.2l15.76,0l1.16,3.2l-18,0z M175.8,48l0-28l4,0l0,28l-4,0z"/></g><g data-name="slogan" fill="#000000" data="id:271" transform="translate(149.6981533447328,204.01543258867676) scale(0.5214550341036345)"><path d="M13.759765625,25.087890625q0.478515625,0.302734375,0.712890625,0.966796875l6.89453125,19.2578125l1.19140625,0q0.6640625,0,0.947265625,0.302734375t0.283203125,1.025390625t-0.283203125,1.025390625t-0.947265625,0.302734375l-6.9140625,0q-0.6640625,0-0.947265625-0.302734375t-0.283203125-1.025390625t0.283203125-1.025390625t0.947265625-0.302734375l2.63671875,0l-1.6015625-4.6484375l-9.47265625,0l-1.62109375,4.6484375l2.36328125,0q0.6640625,0,0.947265625,0.302734375t0.283203125,1.025390625t-0.283203125,1.025390625t-0.947265625,0.302734375l-6.5234375,0q-0.6640625,0-0.947265625-0.302734375t-0.283203125-1.025390625t0.283203125-1.025390625t0.947265625-0.302734375l1.09375,0l6.46484375-17.87109375l-3.65234375,0q-0.6640625,0-0.947265625-0.302734375t-0.283203125-1.025390625t0.283203125-1.025390625t0.947265625-0.302734375l7.16796875,0q0.78125,0,1.259765625,0.302734375z M11.77734375,27.44140625l-3.65234375,10.56640625l7.65625,0l-3.6328125-10.56640625l-0.37109375,0z M43.388671875,25.087890625q0.283203125,0.302734375,0.283203125,1.025390625t-0.283203125,1.025390625t-0.947265625,0.302734375l-5,0l0,17.87109375l5.390625,0q0.6640625,0,0.947265625,0.302734375t0.283203125,1.025390625t-0.283203125,1.025390625t-0.947265625,0.302734375l-13.7109375,0q-0.6640625,0-0.947265625-0.302734375t-0.283203125-1.025390625t0.283203125-1.025390625t0.947265625-0.302734375l5.390625,0l0-17.87109375l-5,0q-0.6640625,0-0.947265625-0.302734375t-0.283203125-1.025390625t0.283203125-1.025390625t0.947265625-0.302734375l12.9296875,0q0.6640625,0,0.947265625,0.302734375z  M89.35546875,30.634765625q1.9140625,1.142578125,3.0078125,3.28125t1.09375,5.029296875t-1.09375,5.029296875t-3.0078125,3.28125t-4.3359375,1.142578125q-3.671875,0-6.19140625-3.22265625l0,7.71484375l3.359375,0q0.6640625,0,0.947265625,0.302734375t0.283203125,1.025390625t-0.283203125,1.025390625t-0.947265625,0.302734375l-8.28125,0q-0.6640625,0-0.947265625-0.302734375t-0.283203125-1.025390625t0.283203125-1.025390625t0.947265625-0.302734375l1.9921875,0l0-20.3125l-1.6015625,0q-0.6640625,0-0.947265625-0.302734375t-0.283203125-1.025390625t0.283203125-1.025390625t0.947265625-0.302734375l3.10546875,0q0.6640625,0,0.947265625,0.302734375t0.283203125,1.025390625l0,1.5625q1.23046875-1.6015625,2.8515625-2.4609375t3.53515625-0.859375q2.421875,0,4.3359375,1.142578125z M81.728515625,33.1640625q-1.357421875,0.78125-2.12890625,2.265625t-0.771484375,3.515625t0.771484375,3.515625t2.12890625,2.265625t3.095703125,0.78125t2.98828125-0.830078125t1.904296875-2.314453125t0.654296875-3.41796875t-0.654296875-3.41796875t-1.904296875-2.314453125t-2.98828125-0.830078125t-3.095703125,0.78125z M112.75390625,30.703125q2.1484375,1.2109375,3.369140625,3.369140625t1.220703125,4.873046875t-1.220703125,4.873046875t-3.369140625,3.369140625t-4.82421875,1.2109375t-4.82421875-1.2109375t-3.369140625-3.369140625t-1.220703125-4.873046875t1.220703125-4.873046875t3.369140625-3.369140625t4.82421875-1.2109375t4.82421875,1.2109375z M104.599609375,33.212890625q-1.435546875,0.830078125-2.216796875,2.32421875t-0.78125,3.408203125t0.78125,3.408203125t2.216796875,2.32421875t3.330078125,0.830078125t3.330078125-0.830078125t2.216796875-2.32421875t0.78125-3.408203125t-0.78125-3.408203125t-2.216796875-2.32421875t-3.330078125-0.830078125t-3.330078125,0.830078125z M143.818359375,30.224609375q0.283203125,0.302734375,0.283203125,1.025390625t-0.283203125,1.025390625t-0.947265625,0.302734375l-0.46875,0l-3.84765625,14.55078125q-0.1953125,0.703125-0.576171875,0.986328125t-1.123046875,0.283203125q-0.83984375,0-1.318359375-0.302734375t-0.712890625-0.966796875l-2.98828125-8.4765625l-3.02734375,8.4765625q-0.234375,0.6640625-0.732421875,0.966796875t-1.337890625,0.302734375q-0.7421875,0-1.11328125-0.283203125t-0.546875-0.986328125l-3.76953125-14.55078125l-0.3515625,0q-0.6640625,0-0.947265625-0.302734375t-0.283203125-1.025390625t0.283203125-1.025390625t0.947265625-0.302734375l5.7421875,0q0.6640625,0,0.947265625,0.302734375t0.283203125,1.025390625t-0.283203125,1.025390625t-0.947265625,0.302734375l-2.40234375,0l2.8125,11.3671875l3.26171875-9.0625q0.13671875-0.41015625,0.5078125-0.6640625t0.9765625-0.25390625q1.23046875,0,1.50390625,0.78125l3.2421875,9.19921875l2.890625-11.3671875l-1.97265625,0q-0.6640625,0-0.947265625-0.302734375t-0.283203125-1.025390625t0.283203125-1.025390625t0.947265625-0.302734375l5.3515625,0q0.6640625,0,0.947265625,0.302734375z M160.908203125,30.634765625q2.001953125,1.142578125,3.076171875,3.1640625t1.23046875,4.658203125q0,0.6640625-0.283203125,0.9375t-0.947265625,0.2734375l-14.140625,0q0.13671875,2.91015625,1.728515625,4.404296875t4.501953125,1.494140625q1.796875,0,3.5546875-0.458984375t3.0859375-1.220703125q0.33203125-0.17578125,0.60546875-0.17578125q0.68359375,0,1.11328125,1.03515625q0.17578125,0.41015625,0.17578125,0.7421875q0,0.78125-0.859375,1.2109375q-1.50390625,0.76171875-3.5546875,1.23046875t-4.12109375,0.46875q-2.94921875,0-5.0390625-1.1328125t-3.18359375-3.26171875t-1.09375-5.05859375q0-2.79296875,1.19140625-4.94140625t3.30078125-3.330078125t4.82421875-1.181640625q2.83203125,0,4.833984375,1.142578125z M152.099609375,33.544921875q-1.572265625,1.220703125-2.060546875,3.388671875l11.93359375,0q-0.41015625-2.24609375-1.884765625-3.427734375t-4.013671875-1.181640625q-2.40234375,0-3.974609375,1.220703125z M188.7109375,30.2734375q0.78125,0.46875,0.78125,1.2109375q0,0.3515625-0.17578125,0.8203125q-0.41015625,1.11328125-1.1328125,1.11328125q-0.29296875,0-0.546875-0.15625q-0.95703125-0.52734375-2.05078125-0.52734375q-1.7578125,0-3.53515625,1.220703125t-2.919921875,3.251953125t-1.142578125,4.31640625l0,3.7890625l6.58203125,0q0.6640625,0,0.947265625,0.302734375t0.283203125,1.025390625t-0.283203125,1.025390625t-0.947265625,0.302734375l-12.578125,0q-0.6640625,0-0.947265625-0.302734375t-0.283203125-1.025390625t0.283203125-1.025390625t0.947265625-0.302734375l3.06640625,0l0-12.734375l-2.48046875,0q-0.6640625,0-0.947265625-0.302734375t-0.283203125-1.025390625t0.283203125-1.025390625t0.947265625-0.302734375l3.984375,0q0.6640625,0,0.947265625,0.302734375t0.283203125,1.025390625l0,3.9453125q0.9375-1.71875,2.265625-3.0078125t2.83203125-1.9921875t2.96875-0.703125q1.5234375,0,2.8515625,0.78125z M208.876953125,30.634765625q2.001953125,1.142578125,3.076171875,3.1640625t1.23046875,4.658203125q0,0.6640625-0.283203125,0.9375t-0.947265625,0.2734375l-14.140625,0q0.13671875,2.91015625,1.728515625,4.404296875t4.501953125,1.494140625q1.796875,0,3.5546875-0.458984375t3.0859375-1.220703125q0.33203125-0.17578125,0.60546875-0.17578125q0.68359375,0,1.11328125,1.03515625q0.17578125,0.41015625,0.17578125,0.7421875q0,0.78125-0.859375,1.2109375q-1.50390625,0.76171875-3.5546875,1.23046875t-4.12109375,0.46875q-2.94921875,0-5.0390625-1.1328125t-3.18359375-3.26171875t-1.09375-5.05859375q0-2.79296875,1.19140625-4.94140625t3.30078125-3.330078125t4.82421875-1.181640625q2.83203125,0,4.833984375,1.142578125z M200.068359375,33.544921875q-1.572265625,1.220703125-2.060546875,3.388671875l11.93359375,0q-0.41015625-2.24609375-1.884765625-3.427734375t-4.013671875-1.181640625q-2.40234375,0-3.974609375,1.220703125z M235.615234375,22.646484375q0.283203125,0.302734375,0.283203125,1.025390625l0,21.640625l1.6015625,0q0.6640625,0,0.947265625,0.302734375t0.283203125,1.025390625t-0.283203125,1.025390625t-0.947265625,0.302734375l-3.10546875,0q-0.6640625,0-0.947265625-0.302734375t-0.283203125-1.025390625l0-1.5625q-1.23046875,1.6015625-2.8515625,2.4609375t-3.53515625,0.859375q-2.421875,0-4.3359375-1.142578125t-3.0078125-3.28125t-1.09375-5.029296875t1.09375-5.029296875t3.0078125-3.28125t4.3359375-1.142578125q3.671875,0,6.19140625,3.22265625l0-7.71484375l-3.1640625,0q-0.6640625,0-0.947265625-0.302734375t-0.283203125-1.025390625t0.283203125-1.025390625t0.947265625-0.302734375l4.86328125,0q0.6640625,0,0.947265625,0.302734375z M223.984375,33.212890625q-1.25,0.830078125-1.904296875,2.314453125t-0.654296875,3.41796875t0.654296875,3.41796875t1.904296875,2.314453125t2.98828125,0.830078125t3.095703125-0.78125t2.12890625-2.265625t0.771484375-3.515625t-0.771484375-3.515625t-2.12890625-2.265625t-3.095703125-0.78125t-2.98828125,0.830078125z  M277.275390625,22.646484375q0.283203125,0.302734375,0.283203125,1.025390625l0,21.640625l6.26953125,0q0.6640625,0,0.947265625,0.302734375t0.283203125,1.025390625t-0.283203125,1.025390625t-0.947265625,0.302734375l-15.3125,0q-0.6640625,0-0.947265625-0.302734375t-0.283203125-1.025390625t0.283203125-1.025390625t0.947265625-0.302734375l6.11328125,0l0-20.3125l-5.33203125,0q-0.6640625,0-0.947265625-0.302734375t-0.283203125-1.025390625t0.283203125-1.025390625t0.947265625-0.302734375l7.03125,0q0.6640625,0,0.947265625,0.302734375z M304.814453125,30.634765625q2.001953125,1.142578125,3.076171875,3.1640625t1.23046875,4.658203125q0,0.6640625-0.283203125,0.9375t-0.947265625,0.2734375l-14.140625,0q0.13671875,2.91015625,1.728515625,4.404296875t4.501953125,1.494140625q1.796875,0,3.5546875-0.458984375t3.0859375-1.220703125q0.33203125-0.17578125,0.60546875-0.17578125q0.68359375,0,1.11328125,1.03515625q0.17578125,0.41015625,0.17578125,0.7421875q0,0.78125-0.859375,1.2109375q-1.50390625,0.76171875-3.5546875,1.23046875t-4.12109375,0.46875q-2.94921875,0-5.0390625-1.1328125t-3.18359375-3.26171875t-1.09375-5.05859375q0-2.79296875,1.19140625-4.94140625t3.30078125-3.330078125t4.82421875-1.181640625q2.83203125,0,4.833984375,1.142578125z M296.005859375,33.544921875q-1.572265625,1.220703125-2.060546875,3.388671875l11.93359375,0q-0.41015625-2.24609375-1.884765625-3.427734375t-4.013671875-1.181640625q-2.40234375,0-3.974609375,1.220703125z M329.375,31.1328125q1.8359375,1.640625,1.8359375,4.86328125l0,7.7734375q0,1.54296875,1.2890625,1.54296875l0.68359375,0q0.6640625,0,0.947265625,0.302734375t0.283203125,1.025390625t-0.283203125,1.025390625t-0.947265625,0.302734375l-1.25,0q-1.26953125,0-2.177734375-0.634765625t-1.181640625-1.865234375q-1.6015625,1.40625-3.466796875,2.16796875t-3.955078125,0.76171875q-1.97265625,0-3.486328125-0.673828125t-2.373046875-1.962890625t-0.859375-3.06640625q0-3.0859375,2.20703125-4.560546875t5.703125-1.474609375q3.10546875,0,5.9375,0.99609375l0-1.66015625q0-1.89453125-1.064453125-2.783203125t-3.427734375-0.888671875q-1.46484375,0-3.046875,0.41015625t-3.0078125,1.1328125q-0.33203125,0.17578125-0.60546875,0.17578125q-0.64453125,0-1.07421875-0.9375q-0.21484375-0.46875-0.21484375-0.78125q0-0.68359375,0.72265625-1.0546875q1.640625-0.859375,3.525390625-1.318359375t3.779296875-0.458984375q3.671875,0,5.5078125,1.640625z M318.818359375,40.185546875q-1.298828125,0.771484375-1.298828125,2.451171875q0,1.42578125,0.986328125,2.216796875t2.763671875,0.791015625q3.88671875,0,7.01171875-3.22265625l0-2.12890625q-1.328125-0.4296875-2.8515625-0.654296875t-3.06640625-0.224609375q-2.24609375,0-3.544921875,0.771484375z M356.6015625,30.2734375q0.78125,0.46875,0.78125,1.2109375q0,0.3515625-0.17578125,0.8203125q-0.41015625,1.11328125-1.1328125,1.11328125q-0.29296875,0-0.546875-0.15625q-0.95703125-0.52734375-2.05078125-0.52734375q-1.7578125,0-3.53515625,1.220703125t-2.919921875,3.251953125t-1.142578125,4.31640625l0,3.7890625l6.58203125,0q0.6640625,0,0.947265625,0.302734375t0.283203125,1.025390625t-0.283203125,1.025390625t-0.947265625,0.302734375l-12.578125,0q-0.6640625,0-0.947265625-0.302734375t-0.283203125-1.025390625t0.283203125-1.025390625t0.947265625-0.302734375l3.06640625,0l0-12.734375l-2.48046875,0q-0.6640625,0-0.947265625-0.302734375t-0.283203125-1.025390625t0.283203125-1.025390625t0.947265625-0.302734375l3.984375,0q0.6640625,0,0.947265625,0.302734375t0.283203125,1.025390625l0,3.9453125q0.9375-1.71875,2.265625-3.0078125t2.83203125-1.9921875t2.96875-0.703125q1.5234375,0,2.8515625,0.78125z M377.05078125,30.263671875q1.30859375,0.771484375,2.01171875,2.216796875t0.703125,3.37890625l0,9.453125l1.6015625,0q0.6640625,0,0.947265625,0.302734375t0.283203125,1.025390625t-0.283203125,1.025390625t-0.947265625,0.302734375l-6.328125,0q-0.6640625,0-0.947265625-0.302734375t-0.283203125-1.025390625t0.283203125-1.025390625t0.947265625-0.302734375l1.796875,0l0-9.16015625q0-1.73828125-0.80078125-2.75390625t-2.36328125-1.015625q-1.66015625,0-3.095703125,0.95703125t-2.294921875,2.63671875t-0.859375,3.75l0,5.5859375l1.796875,0q0.6640625,0,0.947265625,0.302734375t0.283203125,1.025390625t-0.283203125,1.025390625t-0.947265625,0.302734375l-6.328125,0q-0.6640625,0-0.947265625-0.302734375t-0.283203125-1.025390625t0.283203125-1.025390625t0.947265625-0.302734375l1.6015625,0l0-12.734375l-1.9921875,0q-0.6640625,0-0.947265625-0.302734375t-0.283203125-1.025390625t0.283203125-1.025390625t0.947265625-0.302734375l3.49609375,0q0.6640625,0,0.947265625,0.302734375t0.283203125,1.025390625l0,2.34375q1.2890625-1.9921875,3.017578125-3.046875t3.720703125-1.0546875q1.77734375,0,3.0859375,0.771484375z M397.392578125,30.224609375q0.283203125,0.302734375,0.283203125,1.025390625l0,14.0625l6.26953125,0q0.6640625,0,0.947265625,0.302734375t0.283203125,1.025390625t-0.283203125,1.025390625t-0.947265625,0.302734375l-15.3125,0q-0.6640625,0-0.947265625-0.302734375t-0.283203125-1.025390625t0.283203125-1.025390625t0.947265625-0.302734375l6.11328125,0l0-12.734375l-4.94140625,0q-0.6640625,0-0.947265625-0.302734375t-0.283203125-1.025390625t0.283203125-1.025390625t0.947265625-0.302734375l6.640625,0q0.6640625,0,0.947265625,0.302734375z M397.28515625,21.630859375q0.390625,0.283203125,0.390625,0.986328125l0,2.5390625q0,0.703125-0.390625,0.986328125t-1.46484375,0.283203125t-1.46484375-0.283203125t-0.390625-0.986328125l0-2.5390625q0-0.703125,0.390625-0.986328125t1.46484375-0.283203125t1.46484375,0.283203125z M425.01953125,30.263671875q1.30859375,0.771484375,2.01171875,2.216796875t0.703125,3.37890625l0,9.453125l1.6015625,0q0.6640625,0,0.947265625,0.302734375t0.283203125,1.025390625t-0.283203125,1.025390625t-0.947265625,0.302734375l-6.328125,0q-0.6640625,0-0.947265625-0.302734375t-0.283203125-1.025390625t0.283203125-1.025390625t0.947265625-0.302734375l1.796875,0l0-9.16015625q0-1.73828125-0.80078125-2.75390625t-2.36328125-1.015625q-1.66015625,0-3.095703125,0.95703125t-2.294921875,2.63671875t-0.859375,3.75l0,5.5859375l1.796875,0q0.6640625,0,0.947265625,0.302734375t0.283203125,1.025390625t-0.283203125,1.025390625t-0.947265625,0.302734375l-6.328125,0q-0.6640625,0-0.947265625-0.302734375t-0.283203125-1.025390625t0.283203125-1.025390625t0.947265625-0.302734375l1.6015625,0l0-12.734375l-1.9921875,0q-0.6640625,0-0.947265625-0.302734375t-0.283203125-1.025390625t0.283203125-1.025390625t0.947265625-0.302734375l3.49609375,0q0.6640625,0,0.947265625,0.302734375t0.283203125,1.025390625l0,2.34375q1.2890625-1.9921875,3.017578125-3.046875t3.720703125-1.0546875q1.77734375,0,3.0859375,0.771484375z M446.171875,30.3515625q1.62109375,0.859375,2.8515625,2.4609375l0-1.5625q0-0.72265625,0.283203125-1.025390625t0.947265625-0.302734375l3.10546875,0q0.6640625,0,0.947265625,0.302734375t0.283203125,1.025390625t-0.283203125,1.025390625t-0.947265625,0.302734375l-1.6015625,0l0,15.9765625q0,2.32421875-0.986328125,3.994140625t-2.861328125,2.548828125t-4.51171875,0.87890625q-1.875,0-3.7890625-0.322265625t-3.57421875-0.927734375q-0.76171875-0.2734375-0.76171875-1.03515625q0-0.3125,0.15625-0.78125q0.3515625-1.07421875,1.11328125-1.07421875q0.21484375,0,0.4296875,0.078125q1.5234375,0.546875,3.203125,0.859375t3.22265625,0.3125q2.6953125,0,4.0625-1.279296875t1.3671875-3.505859375l0-3.92578125q-2.421875,3.046875-6.19140625,3.046875q-2.421875,0-4.3359375-1.083984375t-3.0078125-3.115234375t-1.09375-4.765625t1.09375-4.765625t3.0078125-3.115234375t4.3359375-1.083984375q1.9140625,0,3.53515625,0.859375z M439.84375,33.154296875q-1.25,0.771484375-1.904296875,2.1484375t-0.654296875,3.154296875t0.654296875,3.154296875t1.904296875,2.1484375t2.98828125,0.771484375t3.095703125-0.72265625t2.12890625-2.099609375t0.771484375-3.251953125t-0.771484375-3.251953125t-2.12890625-2.099609375t-3.095703125-0.72265625t-2.98828125,0.771484375z"/></g></svg>