<svg xmlns="http://www.w3.org/2000/svg" xmlns:xlink="http://www.w3.org/1999/xlink" width="400" height="400" viewBox="0 0 400 400">
<g data-name="business_name_slogan_group" transform=" translate(-68.89997863769531, 0.00000762939453125)"><g data-name="business_name" fill="#000000" data="id:304" transform="translate(147.22891849998058,140.44172328511146) scale(1.3391049778581148)"><path d="M16.72,48.32q-3.2,0-5.9-1.06t-4.68-3t-3.1-4.54t-1.12-5.72t1.12-5.72t3.12-4.54t4.7-3t5.9-1.06q3.24,0,5.98,1.1t4.66,3.26l-2.6,2.52q-1.6-1.68-3.6-2.5t-4.28-0.82q-2.36,0-4.38,0.8t-3.5,2.24t-2.3,3.42t-0.82,4.3t0.82,4.3t2.3,3.42t3.5,2.24t4.38,0.8q2.28,0,4.28-0.82t3.6-2.54l2.6,2.52q-1.92,2.16-4.66,3.28t-6.02,1.12z M41.64,48.24q-3.2,0-5.68-1.4t-3.92-3.86t-1.44-5.58q0-3.16,1.44-5.6t3.92-3.82t5.68-1.38q3.16,0,5.66,1.38t3.92,3.8t1.42,5.62q0,3.16-1.42,5.6t-3.92,3.84t-5.66,1.4z M41.64,44.88q2.04,0,3.66-0.92t2.54-2.62t0.92-3.94q0-2.28-0.92-3.94t-2.54-2.58t-3.66-0.92t-3.64,0.92t-2.56,2.58t-0.96,3.94q0,2.24,0.96,3.94t2.56,2.62t3.64,0.92z M66.88,48.24q-2.72,0-4.78-1t-3.2-3.06t-1.14-5.18l0-12.2l3.84,0l0,11.76q0,3.12,1.5,4.68t4.22,1.56q2,0,3.48-0.82t2.28-2.4t0.8-3.82l0-10.96l3.84,0l0,21.2l-3.64,0l0-5.72l0.6,1.52q-1.04,2.12-3.12,3.28t-4.68,1.16z M85.04,48l0-21.2l3.68,0l0,5.76l-0.36-1.44q0.88-2.2,2.96-3.36t5.12-1.16l0,3.72q-0.24-0.04-0.46-0.04l-0.42,0q-3.08,0-4.88,1.84t-1.8,5.32l0,10.56l-3.84,0z M107.52,48.24q-2.64,0-5.02-0.72t-3.74-1.76l1.6-3.04q1.36,0.92,3.36,1.56t4.08,0.64q2.68,0,3.86-0.76t1.18-2.12q0-1-0.72-1.56t-1.9-0.84t-2.62-0.5t-2.88-0.56t-2.64-0.96t-1.92-1.72t-0.72-2.94q0-1.92,1.08-3.36t3.06-2.22t4.7-0.78q2.08,0,4.22,0.5t3.5,1.42l-1.64,3.04q-1.44-0.96-3-1.32t-3.12-0.36q-2.52,0-3.76,0.82t-1.24,2.1q0,1.08,0.74,1.66t1.92,0.9t2.62,0.54t2.88,0.56t2.62,0.94t1.92,1.68t0.74,2.88q0,1.92-1.12,3.32t-3.16,2.18t-4.88,0.78z M130.92,48.24q-3.4,0-5.98-1.4t-4-3.84t-1.42-5.6t1.38-5.6t3.8-3.82t5.46-1.38q3.08,0,5.44,1.36t3.7,3.82t1.34,5.74q0,0.24-0.02,0.56t-0.06,0.6l-18.04,0l0-2.76l16.04,0l-1.56,0.96q0.04-2.04-0.84-3.64t-2.42-2.5t-3.58-0.9q-2,0-3.56,0.9t-2.44,2.52t-0.88,3.7l0,0.64q0,2.12,0.98,3.78t2.74,2.58t4.04,0.92q1.88,0,3.42-0.64t2.7-1.92l2.12,2.48q-1.44,1.68-3.58,2.56t-4.78,0.88z M142.28,48l12.68-28l3.96,0l12.72,28l-4.2,0l-11.32-25.76l1.6,0l-11.32,25.76l-4.12,0z M147.68,41l1.08-3.2l15.76,0l1.16,3.2l-18,0z M175.8,48l0-28l4,0l0,28l-4,0z"/></g><g data-name="slogan" fill="#000000" data="id:271" transform="translate(149.6981533447328,204.01543258867676) scale(0.5214550341036345)"><path d="M13.759765625,25.087890625q0.478515625,0.302734375,0.712890625,0.966796875l6.89453125,19.2578125l1.19140625,0q0.6640625,0,0.947265625,0.302734375t0.283203125,1.025390625t-0.283203125,1.025390625t-0.947265625,0.302734375l-6.9140625,0q-0.6640625,0-0.947265625-0.302734375t-0.283203125-1.025390625t0.283203125-1.025390625t0.947265625-0.302734375l2.63671875,0l-1.6015625-4.6484375l-9.47265625,0l-1.62109375,4.6484375l2.36328125,0q0.6640625,0,0.947265625,0.302734375t0.283203125,1.025390625t-0.283203125,1.025390625t-0.947265625,0.302734375l-6.5234375,0q-0.6640625,0-0.947265625-0.302734375t-0.283203125-1.025390625t0.283203125-1.025390625t0.947265625-0.302734375l1.09375,0l6.46484375-17.87109375l-3.65234375,0q-0.6640625,0-0.947265625-0.302734375t-0.283203125-1.025390625t0.283203125-1.025390625t0.947265625-0.302734375l7.16796875,0q0.78125,0,1.259765625,0.302734375z M11.77734375,27.44140625l-3.65234375,10.56640625l7.65625,0l-3.6328125-10.56640625l-0.37109375,0z M43.388671875,25.087890625q0.283203125,0.302734375,0.283203125,1.025390625t-0.283203125,1.025390625t-0.947265625,0.302734375l-5,0l0,17.87109375l5.390625,0q0.6640625,0,0.947265625,0.302734375t0.283203125,1.025390625t-0.283203125,1.025390625t-0.947265625,0.302734375l-13.7109375,0q-0.6640625,0-0.947265625-0.302734375t-0.283203125-1.025390625t0.283203125-1.025390625t0.947265625-0.302734375l5.390625,0l0-17.87109375l-5,0q-0.6640625,0-0.947265625-0.302734375t-0.283203125-1.025390625t0.283203125-1.025390625t0.947265625-0.302734375l12.9296875,0q0.6640625,0,0.947265625,0.302734375z  M89.35546875,30.634765625q1.9140625,1.142578125,3.0078125,3.28125t1.09375,5.029296875t-1.09375,5.029296875t-3.0078125,3.28125t-4.3359375,1.142578125q-3.671875,0-6.19140625-3.22265625l0,7.71484375l3.359375,0q0.6640625,0,0.947265625,0.302734375t0.283203125,1.025390625t-0.283203125,1.025390625t-0.947265625,0.302734375l-8.28125,0q-0.6640625,0-0.947265625-0.302734375t-0.283203125-1.025390625t0.283203125-1.025390625t0.947265625-0.302734375l1.9921875,0l0-20.3125l-1.6015625,0q-0.6640625,0-0.947265625-0.302734375t-0.283203125-1.025390625t0.283203125-1.025390625t0.947265625-0.302734375l3.10546875,0q0.6640625,0,0.947265625,0.302734375t0.283203125,1.025390625l0,1.5625q1.23046875-1.6015625,2.8515625-2.4609375t3.53515625-0.859375q2.421875,0,4.3359375,1.142578125z M81.728515625,33.1640625q-1.357421875,0.78125-2.12890625,2.265625t-0.771484375,3.515625t0.771484375,3.515625t2.12890625,2.265625t3.095703125,0.78125t2.98828125-0.830078125t1.904296875-2.314453125t0.654296875-3.41796875t-0.654296875-3.41796875t-1.904296875-2.314453125t-2.98828125-0.830078125t-3.095703125,0.78125z M112.75390625,30.703125q2.1484375,1.2109375,3.369140625,3.369140625t1.220703125,4.873046875t-1.220703125,4.873046875t-3.369140625,3.369140625t-4.82421875,1.2109375t-4.82421875-1.2109375t-3.369140625-3.369140625t-1.220703125-4.873046875t1.220703125-4.873046875t3.369140625-3.369140625t4.82421875-1.2109375t4.82421875,1.2109375z M104.599609375,33.212890625q-1.435546875,0.830078125-2.216796875,2.32421875t-0.78125,3.408203125t0.78125,3.408203125t2.216796875,2.32421875t3.330078125,0.830078125t3.330078125-0.830078125t2.216796875-2.32421875t0.78125-3.408203125t-0.78125-3.408203125t-2.216796875-2.32421875t-3.330078125-0.830078125t-3.330078125,0.830078125z M143.818359375,30.224609375q0.283203125,0.302734375,0.283203125,1.025390625t-0.283203125,1.025390625t-0.947265625,0.302734375l-0.46875,0l-3.84765625,14.55078125q-0.1953125,0.703125-0.576171875,0.986328125t-1.123046875,0.283203125q-0.83984375,0-1.318359375-0.302734375t-0.712890625-0.966796875l-2.98828125-8.4765625l-3.02734375,8.4765625q-0.234375,0.6640625-0.732421875,0.966796875t-1.337890625,0.302734375q-0.7421875,0-1.11328125-0.283203125t-0.546875-0.986328125l-3.76953125-14.55078125l-0.3515625,0q-0.6640625,0-0.947265625-0.302734375t-0.283203125-1.025390625t0.283203125-1.025390625t0.947265625-0.302734375l5.7421875,0q0.6640625,0,0.947265625,0.302734375t0.283203125,1.025390625t-0.283203125,1.025390625t-0.947265625,0.302734375l-2.40234375,0l2.8125,11.3671875l3.26171875-9.0625q0.13671875-0.41015625,0.5078125-0.6640625t0.9765625-0.25390625q1.23046875,0,1.50390625,0.78125l3.2421875,9.19921875l2.890625-11.3671875l-1.97265625,0q-0.6640625,0-0.947265625-0.302734375t-0.283203125-1.025390625t0.283203125-1.025390625t0.947265625-0.302734375l5.3515625,0q0.6640625,0,0.947265625,0.302734375z M160.908203125,30.634765625q2.001953125,1.142578125,3.076171875,3.1640625t1.23046875,4.658203125q0,0.6640625-0.283203125,0.9375t-0.947265625,0.2734375l-14.140625,0q0.13671875,2.91015625,1.728515625,4.404296875t4.501953125,1.494140625q1.796875,0,3.5546875-0.458984375t3.0859375-1.220703125q0.33203125-0.17578125,0.60546875-0.17578125q0.68359375,0,1.11328125,1.03515625q0.17578125,0.41015625,0.17578125,0.7421875q0,0.78125-0.859375,1.2109375q-1.50390625,0.76171875-3.5546875,1.23046875t-4.12109375,0.46875q-2.94921875,0-5.0390625-1.1328125t-3.18359375-3.26171875t-1.09375-5.05859375q0-2.79296875,1.19140625-4.94140625t3.30078125-3.330078125t4.82421875-1.181640625q2.83203125,0,4.833984375,1.142578125z M152.099609375,33.544921875q-1.572265625,1.220703125-2.060546875,3.388671875l11.93359375,0q-0.41015625-2.24609375-1.884765625-3.427734375t-4.013671875-1.181640625q-2.40234375,0-3.974609375,1.220703125z M188.7109375,30.2734375q0.78125,0.46875,0.78125,1.2109375q0,0.3515625-0.17578125,0.8203125q-0.41015625,1.11328125-1.1328125,1.11328125q-0.29296875,0-0.546875-0.15625q-0.95703125-0.52734375-2.05078125-0.52734375q-1.7578125,0-3.53515625,1.220703125t-2.919921875,3.251953125t-1.142578125,4.31640625l0,3.7890625l6.58203125,0q0.6640625,0,0.947265625,0.302734375t0.283203125,1.025390625t-0.283203125,1.025390625t-0.947265625,0.302734375l-12.578125,0q-0.6640625,0-0.947265625-0.302734375t-0.283203125-1.025390625t0.283203125-1.025390625t0.947265625-0.302734375l3.06640625,0l0-12.734375l-2.48046875,0q-0.6640625,0-0.947265625-0.302734375t-0.283203125-1.025390625t0.283203125-1.025390625t0.947265625-0.302734375l3.984375,0q0.6640625,0,0.947265625,0.302734375t0.283203125,1.025390625l0,3.9453125q0.9375-1.71875,2.265625-3.0078125t2.83203125-1.9921875t2.96875-0.703125q1.5234375,0,2.8515625,0.78125z M208.876953125,30.634765625q2.001953125,1.142578125,3.076171875,3.1640625t1.23046875,4.658203125q0,0.6640625-0.283203125,0.9375t-0.947265625,0.2734375l-14.140625,0q0.13671875,2.91015625,1.728515625,4.404296875t4.501953125,1.494140625q1.796875,0,3.5546875-0.458984375t3.0859375-1.220703125q0.33203125-0.17578125,0.60546875-0.17578125q0.68359375,0,1.11328125,1.03515625q0.17578125,0.41015625,0.17578125,0.7421875q0,0.78125-0.859375,1.2109375q-1.50390625,0.76171875-3.5546875,1.23046875t-4.12109375,0.46875q-2.94921875,0-5.0390625-1.1328125t-3.18359375-3.26171875t-1.09375-5.05859375q0-2.79296875,1.19140625-4.94140625t3.30078125-3.330078125t4.82421875-1.181640625q2.83203125,0,4.833984375,1.142578125z M200.068359375,33.544921875q-1.572265625,1.220703125-2.060546875,3.388671875l11.93359375,0q-0.41015625-2.24609375-1.884765625-3.427734375t-4.013671875-1.181640625q-2.40234375,0-3.974609375,1.220703125z M235.615234375,22.646484375q0.283203125,0.302734375,0.283203125,1.025390625l0,21.640625l1.6015625,0q0.6640625,0,0.947265625,0.302734375t0.283203125,1.025390625t-0.283203125,1.025390625t-0.947265625,0.302734375l-3.10546875,0q-0.6640625,0-0.947265625-0.302734375t-0.283203125-1.025390625l0-1.5625q-1.23046875,1.6015625-2.8515625,2.4609375t-3.53515625,0.859375q-2.421875,0-4.3359375-1.142578125t-3.0078125-3.28125t-1.09375-5.029296875t1.09375-5.029296875t3.0078125-3.28125t4.3359375-1.142578125q3.671875,0,6.19140625,3.22265625l0-7.71484375l-3.1640625,0q-0.6640625,0-0.947265625-0.302734375t-0.283203125-1.025390625t0.283203125-1.025390625t0.947265625-0.302734375l4.86328125,0q0.6640625,0,0.947265625,0.302734375z M223.984375,33.212890625q-1.25,0.830078125-1.904296875,2.314453125t-0.654296875,3.41796875t0.654296875,3.41796875t1.904296875,2.314453125t2.98828125,0.830078125t3.095703125-0.78125t2.12890625-2.265625t0.771484375-3.515625t-0.771484375-3.515625t-2.12890625-2.265625t-3.095703125-0.78125t-2.98828125,0.830078125z  M277.275390625,22.646484375q0.283203125,0.302734375,0.283203125,1.025390625l0,21.640625l6.26953125,0q0.6640625,0,0.947265625,0.302734375t0.283203125,1.025390625t-0.283203125,1.025390625t-0.947265625,0.302734375l-15.3125,0q-0.6640625,0-0.947265625-0.302734375t-0.283203125-1.025390625t0.283203125-1.025390625t0.947265625-0.302734375l6.11328125,0l0-20.3125l-5.33203125,0q-0.6640625,0-0.947265625-0.302734375t-0.283203125-1.025390625t0.283203125-1.025390625t0.947265625-0.302734375l7.03125,0q0.6640625,0,0.947265625,0.302734375z M304.814453125,30.634765625q2.001953125,1.142578125,3.076171875,3.1640625t1.23046875,4.658203125q0,0.6640625-0.283203125,0.9375t-0.947265625,0.2734375l-14.140625,0q0.13671875,2.91015625,1.728515625,4.404296875t4.501953125,1.494140625q1.796875,0,3.5546875-0.458984375t3.0859375-1.220703125q0.33203125-0.17578125,0.60546875-0.17578125q0.68359375,0,1.11328125,1.03515625q0.17578125,0.41015625,0.17578125,0.7421875q0,0.78125-0.859375,1.2109375q-1.50390625,0.76171875-3.5546875,1.23046875t-4.12109375,0.46875q-2.94921875,0-5.0390625-1.1328125t-3.18359375-3.26171875t-1.09375-5.05859375q0-2.79296875,1.19140625-4.94140625t3.30078125-3.330078125t4.82421875-1.181640625q2.83203125,0,4.833984375,1.142578125z M296.005859375,33.544921875q-1.572265625,1.220703125-2.060546875,3.388671875l11.93359375,0q-0.41015625-2.24609375-1.884765625-3.427734375t-4.013671875-1.181640625q-2.40234375,0-3.974609375,1.220703125z M329.375,31.1328125q1.8359375,1.640625,1.8359375,4.86328125l0,7.7734375q0,1.54296875,1.2890625,1.54296875l0.68359375,0q0.6640625,0,0.947265625,0.302734375t0.283203125,1.025390625t-0.283203125,1.025390625t-0.947265625,0.302734375l-1.25,0q-1.26953125,0-2.177734375-0.634765625t-1.181640625-1.865234375q-1.6015625,1.40625-3.466796875,2.16796875t-3.955078125,0.76171875q-1.97265625,0-3.486328125-0.673828125t-2.373046875-1.962890625t-0.859375-3.06640625q0-3.0859375,2.20703125-4.560546875t5.703125-1.474609375q3.10546875,0,5.9375,0.99609375l0-1.66015625q0-1.89453125-1.064453125-2.783203125t-3.427734375-0.888671875q-1.46484375,0-3.046875,0.41015625t-3.0078125,1.1328125q-0.33203125,0.17578125-0.60546875,0.17578125q-0.64453125,0-1.07421875-0.9375q-0.21484375-0.46875-0.21484375-0.78125q0-0.68359375,0.72265625-1.0546875q1.640625-0.859375,3.525390625-1.318359375t3.779296875-0.458984375q3.671875,0,5.5078125,1.640625z M318.818359375,40.185546875q-1.298828125,0.771484375-1.298828125,2.451171875q0,1.42578125,0.986328125,2.216796875t2.763671875,0.791015625q3.88671875,0,7.01171875-3.22265625l0-2.12890625q-1.328125-0.4296875-2.8515625-0.654296875t-3.06640625-0.224609375q-2.24609375,0-3.544921875,0.771484375z M356.6015625,30.2734375q0.78125,0.46875,0.78125,1.2109375q0,0.3515625-0.17578125,0.8203125q-0.41015625,1.11328125-1.1328125,1.11328125q-0.29296875,0-0.546875-0.15625q-0.95703125-0.52734375-2.05078125-0.52734375q-1.7578125,0-3.53515625,1.220703125t-2.919921875,3.251953125t-1.142578125,4.31640625l0,3.7890625l6.58203125,0q0.6640625,0,0.947265625,0.302734375t0.283203125,1.025390625t-0.283203125,1.025390625t-0.947265625,0.302734375l-12.578125,0q-0.6640625,0-0.947265625-0.302734375t-0.283203125-1.025390625t0.283203125-1.025390625t0.947265625-0.302734375l3.06640625,0l0-12.734375l-2.48046875,0q-0.6640625,0-0.947265625-0.302734375t-0.283203125-1.025390625t0.283203125-1.025390625t0.947265625-0.302734375l3.984375,0q0.6640625,0,0.947265625,0.302734375t0.283203125,1.025390625l0,3.9453125q0.9375-1.71875,2.265625-3.0078125t2.83203125-1.9921875t2.96875-0.703125q1.5234375,0,2.8515625,0.78125z M377.05078125,30.263671875q1.30859375,0.771484375,2.01171875,2.216796875t0.703125,3.37890625l0,9.453125l1.6015625,0q0.6640625,0,0.947265625,0.302734375t0.283203125,1.025390625t-0.283203125,1.025390625t-0.947265625,0.302734375l-6.328125,0q-0.6640625,0-0.947265625-0.302734375t-0.283203125-1.025390625t0.283203125-1.025390625t0.947265625-0.302734375l1.796875,0l0-9.16015625q0-1.73828125-0.80078125-2.75390625t-2.36328125-1.015625q-1.66015625,0-3.095703125,0.95703125t-2.294921875,2.63671875t-0.859375,3.75l0,5.5859375l1.796875,0q0.6640625,0,0.947265625,0.302734375t0.283203125,1.025390625t-0.283203125,1.025390625t-0.947265625,0.302734375l-6.328125,0q-0.6640625,0-0.947265625-0.302734375t-0.283203125-1.025390625t0.283203125-1.025390625t0.947265625-0.302734375l1.6015625,0l0-12.734375l-1.9921875,0q-0.6640625,0-0.947265625-0.302734375t-0.283203125-1.025390625t0.283203125-1.025390625t0.947265625-0.302734375l3.49609375,0q0.6640625,0,0.947265625,0.302734375t0.283203125,1.025390625l0,2.34375q1.2890625-1.9921875,3.017578125-3.046875t3.720703125-1.0546875q1.77734375,0,3.0859375,0.771484375z M397.392578125,30.224609375q0.283203125,0.302734375,0.283203125,1.025390625l0,14.0625l6.26953125,0q0.6640625,0,0.947265625,0.302734375t0.283203125,1.025390625t-0.283203125,1.025390625t-0.947265625,0.302734375l-15.3125,0q-0.6640625,0-0.947265625-0.302734375t-0.283203125-1.025390625t0.283203125-1.025390625t0.947265625-0.302734375l6.11328125,0l0-12.734375l-4.94140625,0q-0.6640625,0-0.947265625-0.302734375t-0.283203125-1.025390625t0.283203125-1.025390625t0.947265625-0.302734375l6.640625,0q0.6640625,0,0.947265625,0.302734375z M397.28515625,21.630859375q0.390625,0.283203125,0.390625,0.986328125l0,2.5390625q0,0.703125-0.390625,0.986328125t-1.46484375,0.283203125t-1.46484375-0.283203125t-0.390625-0.986328125l0-2.5390625q0-0.703125,0.390625-0.986328125t1.46484375-0.283203125t1.46484375,0.283203125z M425.01953125,30.263671875q1.30859375,0.771484375,2.01171875,2.216796875t0.703125,3.37890625l0,9.453125l1.6015625,0q0.6640625,0,0.947265625,0.302734375t0.283203125,1.025390625t-0.283203125,1.025390625t-0.947265625,0.302734375l-6.328125,0q-0.6640625,0-0.947265625-0.302734375t-0.283203125-1.025390625t0.283203125-1.025390625t0.947265625-0.302734375l1.796875,0l0-9.16015625q0-1.73828125-0.80078125-2.75390625t-2.36328125-1.015625q-1.66015625,0-3.095703125,0.95703125t-2.294921875,2.63671875t-0.859375,3.75l0,5.5859375l1.796875,0q0.6640625,0,0.947265625,0.302734375t0.283203125,1.025390625t-0.283203125,1.025390625t-0.947265625,0.302734375l-6.328125,0q-0.6640625,0-0.947265625-0.302734375t-0.283203125-1.025390625t0.283203125-1.025390625t0.947265625-0.302734375l1.6015625,0l0-12.734375l-1.9921875,0q-0.6640625,0-0.947265625-0.302734375t-0.283203125-1.025390625t0.283203125-1.025390625t0.947265625-0.302734375l3.49609375,0q0.6640625,0,0.947265625,0.302734375t0.283203125,1.025390625l0,2.34375q1.2890625-1.9921875,3.017578125-3.046875t3.720703125-1.0546875q1.77734375,0,3.0859375,0.771484375z M446.171875,30.3515625q1.62109375,0.859375,2.8515625,2.4609375l0-1.5625q0-0.72265625,0.283203125-1.025390625t0.947265625-0.302734375l3.10546875,0q0.6640625,0,0.947265625,0.302734375t0.283203125,1.025390625t-0.283203125,1.025390625t-0.947265625,0.302734375l-1.6015625,0l0,15.9765625q0,2.32421875-0.986328125,3.994140625t-2.861328125,2.548828125t-4.51171875,0.87890625q-1.875,0-3.7890625-0.322265625t-3.57421875-0.927734375q-0.76171875-0.2734375-0.76171875-1.03515625q0-0.3125,0.15625-0.78125q0.3515625-1.07421875,1.11328125-1.07421875q0.21484375,0,0.4296875,0.078125q1.5234375,0.546875,3.203125,0.859375t3.22265625,0.3125q2.6953125,0,4.0625-1.279296875t1.3671875-3.505859375l0-3.92578125q-2.421875,3.046875-6.19140625,3.046875q-2.421875,0-4.3359375-1.083984375t-3.0078125-3.115234375t-1.09375-4.765625t1.09375-4.765625t3.0078125-3.115234375t4.3359375-1.083984375q1.9140625,0,3.53515625,0.859375z M439.84375,33.154296875q-1.25,0.771484375-1.904296875,2.1484375t-0.654296875,3.154296875t0.654296875,3.154296875t1.904296875,2.1484375t2.98828125,0.771484375t3.095703125-0.72265625t2.12890625-2.099609375t0.771484375-3.251953125t-0.771484375-3.251953125t-2.12890625-2.099609375t-3.095703125-0.72265625t-2.98828125,0.771484375z"/></g></g></svg>